DBRep_DrawableShape

CASCADE Topology V1, (c) Matra-Datavision
Locations 0
Curve2ds 10
1 4.7123889803846897 0 0 1 
1 0.083960472882639942 0 0 1 
1 0 0 1 0 
1 5.7595865315812818 0 0 1 
8 0 0.50800000000000001
1 2.617993877991494 0 0 1 
1 0 0.50800000000000001 1 0 
1 0 0 1 0 
1 0 0 0 1 
1 0 0 0 1 
1 0 0.50800000000000001 1 0 
Curves 7
1 -6.5322660266519821e-17 0 0 0 0 1 
2 0 0.35560000000000003 0 0 0 1 1 0 -0 -0 1 0 0.35560000000000003
1 0.30795863358574538 0.17779999999999821 0 0 0 1 
2 0 0.35560000000000003 0.50800000000000001 0 0 1 1 0 -0 -0 1 0 0.35560000000000003
2 1.3198227153674846 -0.40640000000000059 0 0 0 1 1 0 -0 -0 1 0 1.1684000000000001
1 2.4882227153674847 -0.40640000000000059 0 0 0 1 
2 1.3198227153674846 -0.40640000000000059 0.50800000000000001 0 0 1 1 0 -0 -0 1 0 1.1684000000000001
Polygon3D 0
PolygonOnTriangulations 8
2 1 2 
p 0.00995289166146994 1 0 0.508 
7 1 4 5 6 7 8 3 
p 0.00995289166146994 1 4.71238898038469 4.88692190558412 5.06145483078355 5.23598775598299 5.41052068118242 5.58505360638185 5.75958653158128 
2 3 9 
p 0.00995289166146994 1 0 0.508 
2 1 2 
p 0.00995289166146994 1 0 0.508 
7 2 10 11 12 13 14 9 
p 0.00995289166146994 1 4.71238898038469 4.88692190558412 5.06145483078355 5.23598775598299 5.41052068118242 5.58505360638185 5.75958653158128 
16 3 4 5 6 7 8 9 10 11 12 13 14 15 16 17 1 
p 0.00995289166146994 1 0 0.174532925199433 0.349065850398865 0.523598775598298 0.698131700797731 0.872664625997163 1.0471975511966 1.22173047639603 1.39626340159546 1.57079632679489 1.74532925199433 1.91986217719376 2.09439510239319 2.26892802759263 2.44346095279206 2.61799387799149 
2 3 18 
p 0.00995289166146994 1 0 0.508 
16 18 19 20 21 22 23 24 25 26 27 28 29 30 31 32 2 
p 0.00995289166146994 1 0 0.174532925199433 0.349065850398865 0.523598775598298 0.698131700797731 0.872664625997163 1.0471975511966 1.22173047639603 1.39626340159546 1.57079632679489 1.74532925199433 1.91986217719376 2.09439510239319 2.26892802759263 2.44346095279206 2.61799387799149 
Surfaces 4
10 4.7123889803846897 5.7595865315812818 0 0.50800000000000001
2 0 0.35560000000000003 0 0 0 1 1 0 -0 -0 1 0 0.35560000000000003
1 0 0.083960472882639942 0 -1 0 0 0 -1 0 0 0 1 
10 0 2.617993877991494 0 0.50800000000000001
2 1.3198227153674846 -0.40640000000000059 0 0 0 1 1 0 -0 -0 1 0 1.1684000000000001
1 2.4882227153674847 -0.40640000000000048 0 0 -1 0 1 0 0 -0 0 1 
Triangulations 2
14 12 1 0.0013531653585753
0 0 0 0 0 0.508 0.307958633585747 0.1778 0 0.06174929197836 0.00540236302885877 0 0.121622362966607 0.0214453040485307 0 0.177799999999999 0.047641366414253 0 0.228575274004532 0.0831945960268903 0 0.272405403973107 0.127024725995465 0 0.307958633585747 0.1778 0.508 0.06174929197836 0.00540236302885877 0.508 0.121622362966607 0.0214453040485307 0.508 0.177799999999999 0.047641366414253 0.508 0.228575274004532 0.0831945960268903 0.508 0.272405403973107 0.127024725995465 0.508 4.71238898038469 0 4.71238898038469 0.508 5.75958653158128 0 4.88692190558412 0 5.06145483078355 0 5.23598775598299 0 5.41052068118242 0 5.58505360638185 0 5.75958653158128 0.508 4.88692190558412 0.508 5.06145483078355 0.508 5.23598775598299 0.508 5.41052068118242 0.508 5.58505360638185 0.508 10 2 1 10 1 4 11 4 5 11 10 4 12 5 6 12 11 5 13 6 7 13 12 6 14 7 8 14 8 3 14 13 7 9 14 3 
32 30 1 0.0044461147496071
0.307958633585747 0.1778 0 0.307958633585747 0.1778 0.508 2.48822271536748 -0.4064 0 2.47047209398695 -0.203509469213959 0 2.41775957349374 -0.00678366453828982 0 2.33168679714922 0.177799999999999 0 2.2148690427077 0.344633043157751 0 2.07085575852524 0.488646327340212 0 1.90402271536749 0.605464081781737 0 1.7194390508292 0.691536858126254 0 1.52271324615353 0.744249378619463 0 1.31982271536749 0.762 0 1.11693218458145 0.744249378619464 0 0.920206379905776 0.691536858126256 0 0.735622715367487 0.605464081781739 0 0.568789672209735 0.488646327340216 0 0.424776388027273 0.344633043157755 0 2.48822271536748 -0.4064 0.508 2.47047209398695 -0.203509469213959 0.508 2.41775957349374 -0.00678366453828982 0.508 2.33168679714922 0.177799999999999 0.508 2.2148690427077 0.344633043157751 0.508 2.07085575852524 0.488646327340212 0.508 1.90402271536749 0.605464081781737 0.508 1.7194390508292 0.691536858126254 0.508 1.52271324615353 0.744249378619463 0.508 1.31982271536749 0.762 0.508 1.11693218458145 0.744249378619464 0.508 0.920206379905776 0.691536858126256 0.508 0.735622715367487 0.605464081781739 0.508 0.568789672209735 0.488646327340216 0.508 0.424776388027273 0.344633043157755 0.508 2.61799387799149 0 2.61799387799149 0.508 0 0 0.174532925199433 0 0.349065850398865 0 0.523598775598298 0 0.698131700797731 0 0.872664625997163 0 1.0471975511966 0 1.22173047639603 0 1.39626340159546 0 1.57079632679489 0 1.74532925199433 0 1.91986217719376 0 2.09439510239319 0 2.26892802759263 0 2.44346095279206 0 0 0.508 0.174532925199433 0.508 0.349065850398865 0.508 0.523598775598298 0.508 0.698131700797731 0.508 0.872664625997163 0.508 1.0471975511966 0.508 1.22173047639603 0.508 1.39626340159546 0.508 1.57079632679489 0.508 1.74532925199433 0.508 1.91986217719376 0.508 2.09439510239319 0.508 2.26892802759263 0.508 2.44346095279206 0.508 19 3 4 19 18 3 20 4 5 20 19 4 21 5 6 21 20 5 22 6 7 22 21 6 23 7 8 23 22 7 24 8 9 24 23 8 25 9 10 25 24 9 26 10 11 26 25 10 27 11 12 27 26 11 28 12 13 28 27 12 29 13 14 29 28 13 30 14 15 30 29 14 31 15 16 31 30 15 32 16 17 32 31 16 2 17 1 2 32 17 

TShapes 18
Ve
1.01e-07
0 0 0
0 0

0101101
*
Ve
1.01e-07
0 0 0.508
0 0

0101101
*
Ed
 1e-07 1 1 0
1  1 0 0 0.508
2  1 1 0 0 0.508
2  2 2 0 0 0.508
6  1 1 0
0

0101000
+18 0 -17 0 *
Ve
1.00005e-07
0.307958633585747 0.1778 0
0 0

0101101
*
Ed
 1.00005e-07 1 1 0
1  2 0 4.71238898038469 5.75958653158128
2  3 1 0 4.71238898038469 5.75958653158128
6  2 1 0
0

0101000
+18 0 -15 0 *
Ve
1.00005e-07
0.307958633585747 0.1778 0.508
0 0

0101101
*
Ed
 1e-07 1 1 0
1  3 0 0 0.508
2  4 1 0 0 0.508
2  5 3 0 0 0.508
4 G1 1 0 3 0
6  3 1 0
6  4 2 0
0

0101000
+15 0 -13 0 *
Ed
 1.00005e-07 1 1 0
1  4 0 4.71238898038469 5.75958653158128
2  6 1 0 4.71238898038469 5.75958653158128
6  5 1 0
0

0101000
+17 0 -13 0 *
Wi

0101100
-16 0 +14 0 +12 0 -11 0 *
Fa
0  1e-07 1 0
2  1
0101000
+10 0 *
Ve
1.01e-07
2.48822271536748 -0.4064 0
0 0

0101101
*
Ed
 1.00005e-07 1 1 0
1  5 0 0 2.61799387799149
2  7 3 0 0 2.61799387799149
6  6 2 0
0

0101000
+8 0 -15 0 *
Ve
1.01e-07
2.48822271536748 -0.4064 0.508
0 0

0101101
*
Ed
 1e-07 1 1 0
1  6 0 0 0.508
2  8 3 0 0 0.508
2  9 4 0 0 0.508
6  7 2 0
0

0101000
+8 0 -6 0 *
Ed
 1.00005e-07 1 1 0
1  7 0 0 2.61799387799149
2  10 3 0 0 2.61799387799149
6  8 2 0
0

0101000
+6 0 -13 0 *
Wi

0101100
+12 0 +7 0 -5 0 -4 0 *
Fa
0  1e-07 3 0
2  2
0101000
+3 0 *
Sh

1101000
+9 0 -2 0 *

+1 0 