<?xml version="1.0" encoding="UTF-8" standalone="no"?><!DOCTYPE svg PUBLIC "-//W3C//DTD SVG 1.1//EN" "http://www.w3.org/Graphics/SVG/1.1/DTD/svg11.dtd"><svg width="100%" height="100%" viewBox="0 0 903 690" version="1.1" xmlns="http://www.w3.org/2000/svg" xmlns:xlink="http://www.w3.org/1999/xlink" xml:space="preserve" xmlns:serif="http://www.serif.com/" style="fill-rule:evenodd;clip-rule:evenodd;stroke-linejoin:round;stroke-miterlimit:2;"><path d="M533.067,84.26c1.248,0.32 2.475,0.711 3.67,1.178m19.12,38.743l0.002,-0.001l0.006,0.071m-80.418,-56.991l0.319,25.278c0.008,0.611 -0.32,1.137 -0.872,1.399c-0.553,0.263 -1.168,0.184 -1.638,-0.207l-26.211,-21.937c-1.504,0.145 -3.01,0.279 -4.518,0.399c-6.679,0.559 -13.922,0.883 -21.447,0.929l-0.051,0l-0.954,0.004l-0.161,0c-9.083,0.035 -17.819,-0.338 -25.726,-1.043c-12.775,-1.082 -25.429,-3.049 -36.718,-6.095l-0.008,-0.004l-0.008,-0.002c-0.085,-0.024 -0.157,-0.052 -0.228,-0.08l-0.001,0l-0.015,-0.005l-0.007,-0.004l-0.193,-0.067l-0.017,-0.005l-6.826,-2.378c-7.965,-2.658 -15.947,-6.18 -22.305,-10.923l-0.219,-0.166l-0.248,-0.193c0.226,30.862 0.007,72.345 2.076,111.558c0.217,4.112 2.164,7.557 5.576,9.864c3.411,2.305 7.332,2.83 11.229,1.5c0.576,-0.197 1.192,-0.304 1.831,-0.304c3.243,0 5.895,2.752 5.895,6.117l0,13.978c0,3.363 2.654,6.115 5.898,6.115c3.242,0 5.895,-2.752 5.895,-6.115l0,-39.623c0,-3.364 2.655,-6.115 5.895,-6.115c3.245,0 5.898,2.753 5.898,6.117l0,44.305c0,3.362 2.652,6.115 5.896,6.115c3.242,0 5.896,-2.753 5.896,-6.115l0,-31.054c0,-3.365 2.654,-6.117 5.896,-6.117c3.243,0 5.896,2.752 5.896,6.117l0,17.787c0,3.364 2.653,6.117 5.897,6.117c3.241,0 5.895,-2.753 5.895,-6.117l0,-17.827c0,-3.366 2.653,-6.117 5.898,-6.117c3.242,0 5.894,2.751 5.894,6.117l0,40.233c0,3.365 2.654,6.116 5.896,6.116c3.066,0 5.598,-2.464 5.871,-5.573l0,-17.523c0,-3.364 2.68,-6.115 5.923,-6.115c3.242,0 5.894,2.751 5.894,6.115l0,27.619c0,3.364 2.655,6.116 5.898,6.116c3.241,0 5.896,-2.752 5.896,-6.116l0,-11.34c0,-3.365 2.653,-6.116 5.895,-6.116c3.244,0 5.896,2.751 5.896,6.113l0,13.378c0,3.363 2.655,6.116 5.896,6.116c3.243,0 5.896,-2.749 5.896,-6.114l0,-2.776l0.011,0c0.052,-3.319 2.675,-6.019 5.884,-6.019c3.213,0 5.836,2.7 5.889,6.019l0.009,0l0,0.352c0,3.364 2.653,6.116 5.895,6.116c3.243,0 5.896,-2.752 5.896,-6.116l0,-0.352l0.039,0c0.196,-3.186 2.742,-5.734 5.86,-5.734c0.688,0 1.351,0.124 1.972,0.352c0,-45.998 0.17,-91.982 0.275,-137.987l0,-3.077l-0.003,0l0,-15.604l0.007,-0.181l-0.114,-8.648c-8.137,9.213 -22.743,15.517 -39.89,19.543Zm44.757,-4.2c8.239,0.006 18.003,1.436 26.894,6.432c9.964,5.603 18.73,15.595 22.855,32.895c1.309,5.49 2.15,11.718 2.408,18.775c0.826,22.494 -5.708,39.243 -14.917,51.61c-11.301,15.174 -26.613,23.639 -37.24,28.026l0,0.931l-0.101,0l0,35.885c0,0.046 0.04,15.986 -12.484,21.685l0,4.513l-0.008,0c0,0.569 -0.196,1.143 -0.598,1.608c-0.039,0.045 -12.751,15.817 -86.156,15.817c-69.829,0 -88.051,-14.145 -89.631,-15.492c-0.568,-0.453 -0.934,-1.15 -0.934,-1.933l0,-4.325c-5.157,-1.497 -9.182,-4.598 -10.977,-11.288c-1.813,-5.03 -1.567,-9.821 -1.506,-10.645l0,-201.762c-0.047,-0.733 -0.004,-2.81 1.527,-5.533c8.176,-16.973 48.616,-29.926 97.631,-30.251l1.599,-0.007l0.291,-0.001l0.255,0c23.257,0 44.666,2.844 61.735,7.623l0,0.048c22.704,6.369 37.738,16.146 39.153,27.208c0.095,0.504 0.094,0.79 0.094,0.798l-0.003,0l0.003,0.039l0.004,0.383c0.005,0.166 0.018,0.331 0.018,0.496l-0.009,0.226l0.229,17.427l-0.132,0l0,8.812Zm-0.058,131.531c9.799,-4.32 22.905,-12.084 32.708,-25.245c8.501,-11.416 14.53,-26.961 13.758,-47.968c-0.244,-6.668 -1.029,-12.517 -2.252,-17.644c-3.692,-15.487 -11.377,-24.34 -20.08,-29.234c-7.861,-4.418 -16.63,-5.683 -24.076,-5.689l0,9.876c4.906,-0.017 9.947,0.573 14.618,2.091l0.24,0.079c11.808,3.921 19.026,13.43 21.339,25.813l0,0.002l0.018,0.097l0,0.004l0.034,0.194l0,0.004l0.017,0.097l0,0.002l0.017,0.097l0,0.004l0.017,0.096l0,0.004l0.015,0.096l0,0.003l0.016,0.097l0,0.003l0.016,0.096l0,0.004l0.015,0.096l0,0.004l0.016,0.096l0,0.004l0.014,0.096l0,0.004l0.015,0.096l0,0.003l0.014,0.096l0,0.005l0.015,0.095l0,0.005l0.014,0.096l0,0.004l0.013,0.096l0,0.004l0.014,0.095l0,0.005l0.013,0.095l0,0.005c0.738,5.352 0.666,9.553 0.6,15.546l0,0.063l-0.002,0l0,0.017l-0.001,0l-0.002,0.037l-0.005,0.037l-0.003,0.016l0,0.001l-0.007,0.035l-0.002,0l-0.002,0.016l-0.001,0.001l-0.009,0.033l-0.006,0.017l0,0.001l-0.005,0.017l-0.002,0l-0.005,0.016l-0.002,0l-0.02,0.047l-0.001,0l-0.007,0.016l-0.001,0l-0.007,0.015l-0.008,0.014l-0.001,0.001l-0.009,0.014l-0.001,0l-0.008,0.015l0,0.001l-0.01,0.014l-0.001,0l-0.008,0.013l-0.001,0l-0.01,0.014l-0.001,0l-0.009,0.015l-0.002,0l-0.009,0.013l-0.001,0l-0.021,0.025l-0.002,0l-0.023,0.025l-0.025,0.024l-0.001,0l-0.012,0.012l-0.001,0l-0.012,0.009l-0.001,0l-0.04,0.032l-0.002,0l-0.027,0.019l-0.001,0l-0.014,0.009l-0.001,0l-0.029,0.017l-0.001,0l-0.03,0.016l-0.049,0.02l-0.066,0.023l-0.001,0l-0.051,0.012l-0.001,0l-0.017,0.003l-0.001,0c-0.04,0.007 -0.083,0.011 -0.126,0.011l-0.036,-0.001l-0.001,-0.001l-0.016,0l-0.002,-0.002l-0.016,-0.001l-0.002,-0.001l-0.016,0l-0.001,-0.001l-0.017,-0.001l0,-0.002l-0.016,-0.002l-0.001,-0.001l-0.017,-0.002l0,-0.002l-0.017,-0.002l0,-0.001l-0.032,-0.007l-0.002,-0.001l-0.015,-0.004l-0.001,-0.001l-0.015,-0.005l-0.002,-0.001l-0.015,-0.005l-0.001,-0.001l-0.016,-0.005l0,-0.001l-0.015,-0.005l-0.001,-0.001l-0.014,-0.006l-0.001,-0.001l-0.015,-0.006l-0.001,-0.001l-0.014,-0.006l0,-0.001l-0.015,-0.007l-0.015,-0.008l-0.001,0l-0.014,-0.009l0,-0.001l-0.013,-0.008l-0.001,0l-0.014,-0.009l0,0l-0.04,-0.029l0,-0.001l-0.013,-0.01l0,-0.001l-0.014,-0.009l0,-0.001l-0.024,-0.021l-0.001,0l-0.036,-0.036l-0.021,-0.026l-0.001,0l-0.01,-0.013l-0.001,0l-0.009,-0.013l-0.002,0l-0.028,-0.04l-0.001,0l-0.016,-0.029l-0.002,0l-0.008,-0.014l0,-0.001l-0.008,-0.014l-0.007,-0.015l-0.002,0l-0.013,-0.03l-0.001,0l-0.024,-0.064l-0.005,-0.016l-0.002,0l-0.003,-0.017l-0.001,0l-0.012,-0.05l0,0l-0.009,-0.051l-0.006,-0.071c-0.276,-7.74 -0.207,-9.606 -1.411,-15.897l-0.001,-0.006c-1.069,-5.323 -3.157,-10.344 -6.558,-14.618l-0.002,-0.004l-0.087,-0.107l-0.003,-0.003l-0.085,-0.106l-0.002,-0.003l-0.088,-0.106l-0.002,-0.003l-0.088,-0.106l-0.001,-0.003l-0.091,-0.108l-0.09,-0.105l-0.001,-0.003l-0.181,-0.211l-0.002,-0.003c-3.612,-4.132 -7.829,-6.825 -13.489,-8.369l-0.61,-0.159l-0.007,-0.003l-0.144,-0.036l-0.258,-0.063l-0.032,-0.008c-3.971,-0.943 -8.102,-1.183 -12.174,-0.986l-0.248,0.011l0,4.552c4.435,-0.105 9.622,0.528 14.474,2.973c5.382,2.715 10.265,7.595 13.112,16.037c1.279,3.794 2.14,8.305 2.438,13.658c0.766,13.759 -2.702,24.403 -7.724,32.501c-6.827,11.006 -16.526,17.251 -22.37,20.236l0,0.049l0.009,0l0,4.719c0.897,-0.352 1.79,-0.733 2.674,-1.135c2.742,-1.25 5.418,-2.737 7.945,-4.374c2.463,-1.586 4.814,-3.371 7.033,-5.328c2.25,-1.982 4.363,-4.138 6.324,-6.441c0.257,-0.303 0.712,-0.338 1.013,-0.082c0.3,0.256 0.339,0.706 0.086,1.009c-1.76,2.533 -3.704,4.953 -5.821,7.222c-2.084,2.235 -4.339,4.328 -6.75,6.244l0,0.002l0,0.002c-2.454,1.938 -5.002,3.726 -7.698,5.311c-1.526,0.897 -3.105,1.731 -4.745,2.495l0,10.868l-0.058,0.002l0,0.896Zm0.003,-28.009c5.216,-3.041 12.278,-8.337 17.471,-16.707c4.477,-7.218 7.564,-16.753 6.874,-29.151c-0.269,-4.843 -1.027,-8.855 -2.145,-12.17c-2.28,-6.768 -6.091,-10.628 -10.261,-12.731c-3.901,-1.966 -8.195,-2.455 -11.884,-2.35l0,49.393l-0.055,23.716Zm-160.264,52.486c-3.408,0 -6.17,-2.863 -6.17,-6.394c0,-3.533 2.762,-6.396 6.17,-6.396c3.407,0 6.17,2.863 6.17,6.396c0,3.531 -2.763,6.394 -6.17,6.394Zm46.637,-9.01c-3.408,0 -6.17,-2.864 -6.17,-6.396c0,-3.532 2.762,-6.395 6.17,-6.395c3.407,0 6.17,2.863 6.17,6.395c0,3.532 -2.763,6.396 -6.17,6.396Zm6.17,-59.301c0,-3.532 2.76,-6.396 6.168,-6.396c3.408,0 6.169,2.864 6.169,6.396c0,3.531 -2.761,6.395 -6.169,6.395c-3.408,0 -6.168,-2.864 -6.168,-6.395Zm-46.409,-11.637c0,-3.532 2.764,-6.395 6.171,-6.395c3.407,0 6.168,2.863 6.168,6.395c0,3.531 -2.761,6.395 -6.168,6.395c-3.407,0 -6.171,-2.864 -6.171,-6.395Zm84.637,-93.642c4.804,-0.121 8.659,-4.053 8.659,-8.885c0,-4.832 -3.855,-8.761 -8.659,-8.882l-0.201,-0.004l-0.028,0l-0.201,0.004c-4.803,0.121 -8.658,4.05 -8.658,8.882c0,4.832 3.855,8.764 8.658,8.885l0.201,0.004l0.028,0l0.201,-0.004Zm-31.72,0c4.803,-0.121 8.657,-4.053 8.657,-8.885c0,-4.832 -3.854,-8.761 -8.657,-8.882l-0.203,-0.004l-0.027,0l-0.202,0.004c-4.802,0.121 -8.656,4.05 -8.656,8.882c0,4.832 3.854,8.764 8.656,8.885l0.202,0.004l0.027,0l0.203,-0.004Zm-31.722,0c4.804,-0.121 8.659,-4.053 8.659,-8.885c0,-4.832 -3.855,-8.761 -8.659,-8.882l-0.201,-0.004l-0.028,0l-0.201,0.004c-4.803,0.121 -8.658,4.05 -8.658,8.882c0,4.832 3.855,8.764 8.658,8.885l0.201,0.004l0.028,0l0.201,-0.004Zm115.21,212.169l0,5.15c-3.081,2.677 -19.394,13.508 -81.831,13.508c-33.343,0 -54.392,-3.123 -67.36,-6.45c-1.621,-2.553 -2.032,-5.11 -2.13,-6.47c7.649,2.286 15.615,3.707 23.417,5.009c14.633,2.254 29.432,2.808 44.178,3.033c14.748,-0.218 29.549,-0.761 44.184,-3.004c5.935,-0.991 30.301,-5.641 39.542,-10.776Zm3.866,-174.174c-0.18,-5.668 -0.403,-11.326 -0.657,-16.971c-0.013,-0.268 -0.268,-0.489 -0.594,-0.497c-0.339,-0.011 -0.624,0.213 -0.636,0.497c-0.256,5.645 -0.479,11.304 -0.66,16.971c-0.18,5.643 -0.32,11.301 -0.413,16.959l0,0.016l-0.326,33.911l0,0.028l0.321,33.933l0,0.002c0.096,5.664 0.235,11.323 0.417,16.973c0.179,5.668 0.403,11.327 0.661,16.973c0.013,0.267 0.27,0.488 0.595,0.498c0.338,0.009 0.624,-0.215 0.635,-0.498c0.256,-5.646 0.479,-11.305 0.66,-16.973c0.181,-5.645 0.321,-11.301 0.416,-16.96l0,-0.015l0.321,-33.912l0,-0.028l-0.327,-33.932l0,-0.003c-0.093,-5.663 -0.234,-11.323 -0.413,-16.972"/><path d="M91.176,630.777l0,58.333l21.75,0c2.793,0 5.292,-0.347 7.486,-1.055c2.209,-0.695 4.098,-1.737 5.681,-3.111c1.626,-1.431 2.875,-3.153 3.722,-5.195c0.848,-2.041 1.278,-4.333 1.278,-6.888c0,-2.556 -0.43,-4.847 -1.278,-6.889c-0.847,-2.042 -2.096,-3.765 -3.722,-5.195c-0.166,-0.167 -0.333,-0.32 -0.513,-0.444c-0.167,-0.139 -0.362,-0.265 -0.57,-0.39c0.208,-0.124 0.403,-0.263 0.57,-0.416c0.18,-0.153 0.347,-0.291 0.513,-0.417c1.639,-1.43 2.875,-3.153 3.722,-5.194c0.848,-2.042 1.278,-4.334 1.278,-6.889c0,-2.555 -0.43,-4.847 -1.278,-6.889c-0.847,-2.042 -2.096,-3.778 -3.722,-5.194c-1.583,-1.376 -3.472,-2.418 -5.681,-3.111c-2.194,-0.709 -4.693,-1.056 -7.486,-1.056l-21.75,0Zm6.667,6.666l15.083,0c1.959,0 3.681,0.209 5.154,0.625c1.471,0.417 2.68,1.042 3.596,1.876c0.918,0.791 1.611,1.763 2.071,2.944c0.458,1.18 0.68,2.556 0.68,4.139c0,1.542 -0.222,2.917 -0.68,4.097c-0.46,1.195 -1.153,2.194 -2.071,2.986c-0.916,0.792 -2.125,1.417 -3.596,1.847c-1.473,0.431 -3.195,0.653 -5.154,0.653l-15.083,0l0,-19.167Zm0,25.835l15.083,0c1.959,0 3.681,0.207 5.154,0.624c1.471,0.417 2.68,1.042 3.596,1.875c0.918,0.792 1.611,1.778 2.071,2.944c0.458,1.181 0.68,2.556 0.68,4.14c0,1.541 -0.222,2.916 -0.68,4.097c-0.46,1.194 -1.153,2.195 -2.071,2.986c-0.916,0.833 -2.125,1.459 -3.596,1.874c-1.473,0.417 -3.195,0.627 -5.154,0.627l-15.083,0l0,-19.167Zm54.25,19.167l0,-51.668l-6.666,0l0,58.333l34.75,0l0,-6.665l-28.084,0Zm58.168,-51.668c-1.5,0 -2.959,0.125 -4.348,0.361c-1.388,0.25 -2.694,0.597 -3.902,1.055c-1.292,0.501 -2.486,1.126 -3.569,1.862c-1.084,0.735 -2.057,1.597 -2.932,2.555c-1.708,1.918 -3,4.209 -3.861,6.862c-0.875,2.652 -1.305,5.68 -1.305,9.055l0,14.75c0,3.375 0.43,6.403 1.305,9.083c0.861,2.68 2.153,4.959 3.861,6.835c1.751,1.999 3.918,3.499 6.501,4.5c1.208,0.458 2.514,0.805 3.902,1.054c1.389,0.236 2.848,0.361 4.348,0.361c1.542,0 3.014,-0.125 4.416,-0.361c1.403,-0.249 2.708,-0.596 3.917,-1.054c2.584,-1.001 4.75,-2.501 6.501,-4.5c1.707,-1.876 3,-4.155 3.86,-6.835c0.876,-2.68 1.306,-5.708 1.306,-9.083l0,-14.75c0,-3.375 -0.43,-6.403 -1.306,-9.055c-0.86,-2.653 -2.153,-4.944 -3.86,-6.862c-0.876,-0.958 -1.848,-1.82 -2.931,-2.555c-1.084,-0.736 -2.278,-1.361 -3.57,-1.862c-1.209,-0.458 -2.514,-0.805 -3.917,-1.055c-1.402,-0.236 -2.874,-0.361 -4.416,-0.361Zm0,6.666c2.166,0 4.083,0.306 5.736,0.931c1.639,0.612 3.014,1.528 4.097,2.736c1.167,1.25 2.042,2.847 2.625,4.764c0.584,1.931 0.876,4.138 0.876,6.653l0,14.75c0,5.083 -1.168,8.917 -3.501,11.5c-1.083,1.208 -2.458,2.125 -4.097,2.737c-1.653,0.624 -3.57,0.931 -5.736,0.931c-2.167,0 -4.07,-0.307 -5.695,-0.931c-1.638,-0.612 -3.013,-1.529 -4.139,-2.737c-1.124,-1.292 -1.972,-2.889 -2.556,-4.806c-0.569,-1.93 -0.861,-4.153 -0.861,-6.694l0,-14.75c0,-2.515 0.292,-4.722 0.861,-6.653c0.584,-1.917 1.432,-3.514 2.556,-4.764c1.126,-1.208 2.501,-2.124 4.139,-2.736c1.625,-0.625 3.528,-0.931 5.695,-0.931Zm53.417,-6.666c-1.501,0 -2.959,0.125 -4.348,0.361c-1.389,0.25 -2.694,0.597 -3.902,1.055c-1.293,0.501 -2.487,1.126 -3.57,1.862c-1.084,0.735 -2.056,1.597 -2.931,2.555c-1.708,1.918 -3,4.209 -3.861,6.862c-0.876,2.666 -1.305,5.68 -1.305,9.055l0,14.75c0,3.375 0.429,6.403 1.305,9.083c0.861,2.68 2.153,4.959 3.861,6.835c1.75,1.999 3.918,3.499 6.501,4.5c1.208,0.458 2.513,0.805 3.902,1.054c1.389,0.236 2.847,0.361 4.348,0.361c1.541,0 3.014,-0.125 4.416,-0.361c1.403,-0.249 2.708,-0.596 3.916,-1.054c2.585,-1.001 4.751,-2.501 6.501,-4.5c1.708,-1.876 3,-4.155 3.861,-6.835c0.876,-2.68 1.305,-5.708 1.305,-9.083l0,-10.667l-19.999,0l0,6.668l13.333,0l0,3.999c0,5.083 -1.167,8.917 -3.501,11.5c-1.083,1.208 -2.457,2.125 -4.097,2.737c-1.652,0.624 -3.569,0.931 -5.735,0.931c-2.168,0 -4.071,-0.307 -5.696,-0.931c-1.638,-0.612 -3.013,-1.529 -4.138,-2.737c-1.125,-1.292 -1.973,-2.903 -2.556,-4.819c-0.569,-1.917 -0.861,-4.14 -0.861,-6.681l0,-14.75c0,-2.514 0.292,-4.722 0.861,-6.653c0.583,-1.917 1.431,-3.514 2.556,-4.764c1.125,-1.208 2.5,-2.124 4.138,-2.736c1.625,-0.625 3.528,-0.931 5.696,-0.931l0.999,0c1.668,0 3.18,0.181 4.556,0.557c1.361,0.374 2.57,0.943 3.611,1.693c1.001,0.709 1.861,1.598 2.569,2.681c0.709,1.069 1.265,2.32 1.681,3.736l6.417,-1.833c-0.625,-2.167 -1.5,-4.097 -2.639,-5.792c-1.125,-1.694 -2.527,-3.125 -4.194,-4.291c-1.584,-1.126 -3.39,-1.972 -5.403,-2.556c-2.014,-0.569 -4.223,-0.861 -6.598,-0.861l-0.999,0Zm97.084,6.666l0,-6.666l-35.084,0l0,6.666l14.167,0l0,51.667l6.667,0l0,-51.667l14.25,0Zm48.25,0l0,-6.666l-34.75,0l0,58.333l34.75,0l0,-6.665l-28.084,0l0,-19.167l28.084,0l0,-6.668l-28.084,0l0,-19.167l28.084,0Zm33.417,-6.666c-1.5,0 -2.959,0.125 -4.347,0.361c-1.389,0.25 -2.694,0.597 -3.903,1.055c-1.292,0.501 -2.486,1.126 -3.569,1.862c-1.084,0.735 -2.056,1.597 -2.932,2.555c-1.708,1.918 -3,4.209 -3.861,6.862c-0.875,2.652 -1.305,5.68 -1.305,9.055l0,14.75c0,3.375 0.43,6.403 1.305,9.083c0.861,2.68 2.153,4.959 3.861,6.835c1.751,1.999 3.918,3.499 6.501,4.5c1.209,0.458 2.514,0.805 3.903,1.054c1.388,0.236 2.847,0.361 4.347,0.361c2.417,0 4.626,-0.291 6.639,-0.875c2,-0.583 3.82,-1.458 5.444,-2.624c1.625,-1.126 3.014,-2.542 4.167,-4.223c1.153,-1.68 2.042,-3.611 2.667,-5.778l-6.417,-1.832c-0.417,1.416 -0.986,2.665 -1.694,3.735c-0.709,1.083 -1.555,1.973 -2.556,2.682c-2.083,1.5 -4.833,2.25 -8.25,2.25c-2.167,0 -4.07,-0.307 -5.695,-0.931c-1.638,-0.612 -3.013,-1.529 -4.139,-2.737c-1.124,-1.292 -1.972,-2.889 -2.555,-4.806c-0.57,-1.93 -0.862,-4.153 -0.862,-6.694l0,-14.75c0,-2.514 0.292,-4.722 0.862,-6.653c0.583,-1.917 1.431,-3.514 2.555,-4.764c1.126,-1.208 2.501,-2.124 4.139,-2.736c1.625,-0.625 3.528,-0.931 5.695,-0.931c3.417,0 6.167,0.75 8.25,2.25c1.001,0.709 1.847,1.598 2.556,2.681c0.708,1.069 1.277,2.32 1.694,3.736l6.417,-1.833c-0.625,-2.167 -1.514,-4.097 -2.667,-5.792c-1.153,-1.694 -2.542,-3.125 -4.167,-4.291c-1.624,-1.126 -3.444,-1.972 -5.444,-2.556c-2.013,-0.569 -4.222,-0.861 -6.639,-0.861Zm72.333,58.333l0,-58.333l-6.666,0l0,25.833l-26.584,0l0,-25.833l-6.666,0l0,58.333l6.666,0l0,-25.832l26.584,0l0,25.832l6.666,0Zm55.917,0l0,-58.333l-6.666,0l0,43.667l-28.084,-43.667l-5.166,0l0,58.333l6.666,0l0,-43.666l28.084,43.666l5.166,0Zm22.667,0l0,-58.333l-6.666,0l0,58.333l6.666,0Zm34.251,-58.333c-1.5,0 -2.959,0.125 -4.348,0.361c-1.389,0.25 -2.694,0.597 -3.902,1.055c-1.292,0.501 -2.487,1.126 -3.57,1.862c-1.084,0.735 -2.056,1.597 -2.931,2.555c-1.708,1.918 -3,4.209 -3.861,6.862c-0.875,2.652 -1.305,5.68 -1.305,9.055l0,14.75c0,3.375 0.43,6.403 1.305,9.083c0.861,2.68 2.153,4.959 3.861,6.835c1.75,1.999 3.917,3.499 6.501,4.5c1.208,0.458 2.513,0.805 3.902,1.054c1.389,0.236 2.848,0.361 4.348,0.361c2.416,0 4.625,-0.291 6.638,-0.875c2,-0.583 3.82,-1.458 5.444,-2.624c1.626,-1.126 3.014,-2.542 4.167,-4.223c1.153,-1.68 2.042,-3.611 2.667,-5.778l-6.417,-1.832c-0.417,1.416 -0.986,2.665 -1.693,3.735c-0.709,1.083 -1.556,1.973 -2.556,2.682c-2.084,1.5 -4.834,2.25 -8.25,2.25c-2.168,0 -4.071,-0.307 -5.696,-0.931c-1.638,-0.612 -3.013,-1.529 -4.138,-2.737c-1.125,-1.292 -1.973,-2.889 -2.556,-4.806c-0.569,-1.93 -0.861,-4.153 -0.861,-6.694l0,-14.75c0,-2.514 0.292,-4.722 0.861,-6.653c0.583,-1.917 1.431,-3.514 2.556,-4.764c1.125,-1.208 2.5,-2.124 4.138,-2.736c1.625,-0.625 3.528,-0.931 5.696,-0.931c3.416,0 6.166,0.75 8.25,2.25c1,0.709 1.847,1.598 2.556,2.681c0.707,1.069 1.276,2.32 1.693,3.736l6.417,-1.833c-0.625,-2.167 -1.514,-4.097 -2.667,-5.792c-1.153,-1.694 -2.541,-3.125 -4.167,-4.291c-1.624,-1.126 -3.444,-1.972 -5.444,-2.556c-2.013,-0.569 -4.222,-0.861 -6.638,-0.861Zm67.666,9.083l0,-9.083l-36.916,0l0,6.666l30.416,0l-30.416,42.584l0,9.083l36.916,0l0,-6.665l-30.417,0l30.417,-42.585Zm54.25,49.25l0,-58.333l-6.665,0l0,43.667l-28.085,-43.667l-5.166,0l0,58.333l6.666,0l0,-43.666l28.085,43.666l5.165,0Zm55.834,-58.333l-7.417,0l-14.582,29.083l-14.585,-29.083l-7.416,0l18.666,37.333l0,21l6.667,0l0,-21l18.667,-37.333Z" style="fill-rule:nonzero;"/><path d="M73.931,339.47c-6.069,0 -11.557,0.693 -16.408,2.107c-4.878,1.385 -9.118,3.464 -12.693,6.208c-3.825,2.993 -6.735,6.624 -8.675,10.892c-1.968,4.24 -2.965,9.035 -2.965,14.385c0,5.403 0.997,10.254 2.965,14.523c1.94,4.267 4.85,7.926 8.675,10.919c3.575,2.743 7.815,4.822 12.693,6.208c4.851,1.413 10.339,2.107 16.408,2.107c3.936,0 7.373,0.36 10.366,1.108c2.993,0.748 5.404,1.885 7.261,3.381c1.58,1.165 2.744,2.661 3.519,4.462c0.777,1.83 1.138,3.936 1.138,6.347c0,2.495 -0.361,4.656 -1.138,6.486c-0.775,1.829 -1.939,3.326 -3.519,4.489c-1.857,1.497 -4.268,2.633 -7.261,3.382c-2.993,0.749 -6.43,1.109 -10.366,1.109l-1.829,0c-2.911,0 -5.515,-0.333 -7.843,-0.943c-2.329,-0.638 -4.379,-1.552 -6.125,-2.716c-1.663,-1.164 -3.077,-2.661 -4.241,-4.462c-1.164,-1.83 -2.078,-3.936 -2.744,-6.346l-17.627,5.154c1.247,4.407 3.077,8.342 5.432,11.779c2.356,3.437 5.211,6.347 8.537,8.675c3.326,2.411 7.068,4.213 11.197,5.377c4.102,1.191 8.591,1.774 13.414,1.774l1.829,0c6.07,0 11.53,-0.694 16.352,-2.106c4.823,-1.387 9.007,-3.466 12.583,-6.209c3.825,-2.993 6.734,-6.651 8.702,-10.92c1.941,-4.268 2.939,-9.118 2.939,-14.522c0,-5.35 -0.998,-10.145 -2.939,-14.385c-1.968,-4.268 -4.877,-7.899 -8.702,-10.892c-3.576,-2.744 -7.76,-4.823 -12.583,-6.208c-4.822,-1.414 -10.282,-2.107 -16.352,-2.107c-3.991,0 -7.511,-0.388 -10.504,-1.136c-3.021,-0.748 -5.459,-1.857 -7.289,-3.353c-1.579,-1.165 -2.744,-2.662 -3.52,-4.49c-0.749,-1.83 -1.136,-3.992 -1.136,-6.485c0,-2.412 0.387,-4.518 1.136,-6.347c0.776,-1.802 1.941,-3.298 3.52,-4.463c1.83,-1.496 4.268,-2.632 7.289,-3.381c2.993,-0.748 6.513,-1.108 10.504,-1.108l1.663,0c2.911,0 5.543,0.276 7.871,0.886c2.328,0.61 4.351,1.524 6.098,2.772c1.663,1.164 3.076,2.661 4.24,4.462c1.165,1.829 2.079,3.935 2.744,6.347l17.627,-5.155c-1.248,-4.435 -3.02,-8.343 -5.349,-11.78c-2.328,-3.464 -5.21,-6.347 -8.619,-8.675c-3.326,-2.41 -7.041,-4.211 -11.114,-5.376c-4.102,-1.192 -8.593,-1.774 -13.498,-1.774l-1.663,0Zm104.432,74.332l37.083,-74.332l-20.454,0l-25.775,51.717l-25.942,-51.717l-20.453,0l37.248,74.332l0,42.073l18.293,0l0,-42.072Zm161.469,42.072l0,-116.405l-14.966,0l-39.744,85.474l-39.745,-85.474l-14.965,0l0,116.405l18.292,0l0,-65.852l30.597,65.852l11.641,0l30.598,-65.852l0,65.852l18.292,0Zm104.598,-116.405l-18.292,0l0,72.171c0,4.407 -0.499,8.314 -1.469,11.668c-0.97,3.353 -2.439,6.126 -4.351,8.287c-1.83,1.996 -4.13,3.492 -6.874,4.491c-2.771,0.996 -6.014,1.496 -9.756,1.496c-3.658,0 -6.901,-0.5 -9.672,-1.496c-2.772,-0.999 -5.045,-2.495 -6.79,-4.491c-1.913,-2.161 -3.355,-4.934 -4.351,-8.287c-0.971,-3.354 -1.47,-7.261 -1.47,-11.668l0,-72.171l-18.292,0l0,72.171c0,6.818 0.886,12.916 2.633,18.292c1.746,5.376 4.352,9.978 7.844,13.802c3.602,3.991 7.953,7.012 13.053,9.063c5.1,2.052 10.782,3.077 17.045,3.077c6.347,0 12.084,-1.025 17.184,-3.077c5.127,-2.051 9.478,-5.072 13.082,-9.063c3.492,-3.824 6.125,-8.426 7.871,-13.802c1.745,-5.376 2.605,-11.474 2.605,-18.292l0,-72.171Zm41.573,98.113l0,-98.113l-18.292,0l0,116.405l68.679,0l0,-18.292l-50.387,0Zm158.143,18.292l-41.573,-116.405l-12.971,0l-41.573,116.405l19.455,0l7.484,-20.953l42.238,0l7.484,20.953l19.456,0Zm-62.526,-39.245l14.467,-40.908l14.634,40.908l-29.101,0Zm111.582,-77.16c-6.347,0 -12.084,1.025 -17.184,3.077c-5.127,2.05 -9.478,5.071 -13.08,9.062c-3.493,3.825 -6.098,8.426 -7.844,13.803c-1.747,5.376 -2.633,11.474 -2.633,18.291l0,27.938c0,6.818 0.886,12.916 2.633,18.292c1.746,5.376 4.351,9.978 7.844,13.802c3.602,3.991 7.953,7.012 13.08,9.063c5.1,2.052 10.837,3.077 17.184,3.077c4.823,0 9.258,-0.582 13.331,-1.774c4.075,-1.163 7.788,-2.966 11.114,-5.377c3.409,-2.328 6.264,-5.238 8.592,-8.675c2.328,-3.437 4.13,-7.372 5.377,-11.779l-17.461,-5.154c-0.748,2.41 -1.719,4.516 -2.882,6.346c-1.165,1.801 -2.523,3.298 -4.102,4.462c-1.747,1.164 -3.824,2.078 -6.181,2.716c-2.356,0.61 -4.96,0.943 -7.788,0.943c-3.742,0 -6.984,-0.5 -9.756,-1.496c-2.743,-0.999 -5.044,-2.495 -6.873,-4.491c-1.912,-2.161 -3.354,-4.934 -4.351,-8.287c-0.971,-3.354 -1.469,-7.261 -1.469,-11.668l0,-27.938c0,-4.406 0.498,-8.313 1.469,-11.668c0.997,-3.353 2.439,-6.125 4.351,-8.286c1.829,-1.995 4.13,-3.493 6.873,-4.49c2.772,-0.998 6.014,-1.496 9.756,-1.496c2.828,0 5.432,0.276 7.788,0.886c2.357,0.61 4.434,1.524 6.181,2.772c1.579,1.164 2.937,2.661 4.102,4.462c1.163,1.801 2.134,3.935 2.882,6.347l17.461,-5.155c-1.247,-4.435 -3.049,-8.343 -5.377,-11.78c-2.328,-3.464 -5.183,-6.347 -8.592,-8.675c-3.326,-2.41 -7.039,-4.211 -11.114,-5.376c-4.073,-1.192 -8.508,-1.774 -13.331,-1.774Zm83.978,0l-18.292,0l0,72.171c0,4.518 -0.443,8.481 -1.358,11.89c-0.887,3.436 -2.218,6.235 -3.963,8.398c-1.497,1.912 -3.382,3.326 -5.627,4.267c-2.272,0.916 -4.933,1.387 -8.009,1.387l0,18.292c5.848,0 11.113,-1.081 15.853,-3.188c4.711,-2.106 8.731,-5.21 12.084,-9.285c3.077,-3.907 5.405,-8.508 6.957,-13.829c1.579,-5.294 2.355,-11.28 2.355,-17.932l0,-72.171Zm91.96,18.293l0,-18.293l-68.678,0l0,116.405l68.678,0l0,-18.292l-50.387,0l0,-30.764l50.387,0l0,-18.293l-50.387,0l0,-30.763l50.387,0Z" style="fill-rule:nonzero;"/><path d="M0,485.123l0,116.405l18.292,0l0,-42.072l22.283,0c12.472,0 22.283,-3.159 29.434,-9.478c3.741,-3.353 6.568,-7.346 8.453,-12.001c1.912,-4.656 2.855,-9.839 2.855,-15.604c0,-5.848 -0.943,-11.086 -2.855,-15.742c-1.885,-4.657 -4.712,-8.619 -8.453,-11.863c-3.576,-3.242 -7.816,-5.653 -12.722,-7.261c-4.905,-1.579 -10.476,-2.384 -16.712,-2.384l-40.575,0Zm18.292,18.293l22.283,0c3.852,0 7.234,0.416 10.144,1.246c2.937,0.832 5.321,2.079 7.15,3.742c1.746,1.498 3.049,3.41 3.88,5.738c0.86,2.328 1.276,5.072 1.276,8.231c0,3.077 -0.416,5.765 -1.276,8.093c-0.831,2.301 -2.134,4.213 -3.88,5.709c-1.829,1.663 -4.213,2.911 -7.15,3.742c-2.91,0.832 -6.292,1.248 -10.144,1.248l-22.283,0l0,-37.749Zm81.316,-18.293l0,116.405l18.292,0l0,-42.072l8.647,0l31.595,42.072l22.783,0l-31.929,-42.57c4.242,-0.665 8.066,-1.747 11.53,-3.243c3.437,-1.497 6.514,-3.409 9.257,-5.737c3.658,-3.353 6.43,-7.345 8.315,-12.001c1.885,-4.656 2.827,-9.839 2.827,-15.604c0,-5.848 -0.942,-11.085 -2.827,-15.742c-1.885,-4.657 -4.657,-8.619 -8.315,-11.863c-3.575,-3.242 -7.843,-5.653 -12.777,-7.261c-4.933,-1.579 -10.504,-2.384 -16.657,-2.384l-40.741,0Zm18.292,18.293l22.449,0c3.853,0 7.234,0.416 10.145,1.246c2.937,0.832 5.321,2.079 7.15,3.742c3.326,2.994 4.989,7.65 4.989,13.969c0,3.077 -0.415,5.765 -1.247,8.093c-0.831,2.301 -2.079,4.213 -3.742,5.709c-1.829,1.663 -4.213,2.911 -7.15,3.742c-2.911,0.832 -6.292,1.248 -10.145,1.248l-22.449,0l0,-37.749Zm151.492,6.651l0,-24.944l-70.175,0l0,18.293l52.381,0l-52.381,73.169l0,24.943l70.175,0l0,-18.291l-52.382,0l52.382,-73.17Zm70.507,49.389l37.083,-74.333l-20.454,0l-25.775,51.717l-25.942,-51.717l-20.454,0l37.249,74.333l0,42.072l18.293,0l0,-42.072Zm152.322,-24.445l38.579,-49.888l-23.114,0l-45.896,59.367l0,-59.367l-18.292,0l0,116.405l18.292,0l0,-27.105l18.458,-23.78l29.435,50.885l21.117,0l-38.579,-66.517Zm145.375,66.517l-41.574,-116.405l-12.971,0l-41.572,116.405l19.455,0l7.484,-20.953l42.238,0l7.484,20.953l19.456,0Zm-62.527,-39.244l14.468,-40.909l14.633,40.909l-29.101,0Zm164.625,39.244l37.416,-116.405l-19.29,0l-24.944,77.326l-24.777,-77.326l-13.304,0l-24.943,77.326l-24.777,-77.326l-19.29,0l37.415,116.405l13.304,0l24.944,-77.325l24.777,77.325l13.469,0Zm70.675,0l0,-116.405l-18.292,0l0,116.405l18.292,0Zm91.96,-98.112l0,-18.293l-68.679,0l0,116.405l68.679,0l0,-18.291l-50.387,0l0,-30.764l50.387,0l0,-18.293l-50.387,0l0,-30.764l50.387,0Z" style="fill-rule:nonzero;"/></svg>